<svg xmlns="http://www.w3.org/2000/svg" width="23" height="24"><path fill="#fff" d="M16.937 11.989c0 3.2-2.529 5.795-5.651 5.795-3.12 0-5.65-2.593-5.65-5.795 0-3.2 2.527-5.794 5.65-5.794 3.12 0 5.65 2.592 5.65 5.794zm-1.983 0c0-2.078-1.641-3.762-3.668-3.762s-3.668 1.684-3.668 3.762c0 2.078 1.641 3.762 3.668 3.762s3.668-1.684 3.668-3.762zm7.27-4.653c.09 2.08.095 7.226 0 9.306-.15 3.357-1.69 5.226-3.73 6.04-1.5.595-2.965.592-7.208.592-4.136 0-7.032.286-9.157-1.894C.043 19.24.282 16.382.282 11.99c0-4.293-.271-7.22 1.847-9.391C3.396 1.298 4.967.858 6.749.77c2.028-.092 7.047-.097 9.074 0 4.144.198 6.22 2.602 6.401 6.565zm-1.916 4.653c0-3.013-.012-3.37-.064-4.56-.23-5.22-4.068-4.694-8.958-4.694l-.041-.028c-2.943 0-3.287.014-4.456.057C1.7 3.03 2.22 6.776 2.22 11.974c0 3.843-.28 6.377 1.267 7.956 1.342 1.38 3.182 1.311 7.77 1.311 4.457 0 6.383.127 7.771-1.297 1.365-1.407 1.279-3.305 1.279-7.955zM18.48 5.966c0 .748-.592 1.353-1.32 1.353-.73 0-1.321-.607-1.321-1.353 0-.747.592-1.354 1.32-1.354.728 0 1.321.607 1.321 1.354z"/></svg>