<svg xmlns="http://www.w3.org/2000/svg" width="23" height="20"><path fill="#fff" d="M20.69 5.582a9.345 9.345 0 002.318-2.453 9.493 9.493 0 01-2.666.745 4.686 4.686 0 002.036-2.61 9.16 9.16 0 01-2.934 1.144 4.59 4.59 0 00-3.38-1.496c-2.56 0-4.623 2.123-4.623 4.726 0 .374.031.734.107 1.077-3.846-.192-7.25-2.074-9.537-4.942a4.84 4.84 0 00-.634 2.388 4.76 4.76 0 002.056 3.927 4.5 4.5 0 01-2.09-.583v.052c0 2.296 1.603 4.204 3.706 4.643a4.49 4.49 0 01-1.213.156 4.02 4.02 0 01-.875-.08c.599 1.87 2.301 3.246 4.323 3.291a9.178 9.178 0 01-5.737 2.015 8.66 8.66 0 01-1.107-.064 12.838 12.838 0 007.098 2.12c8.164 0 13.486-6.956 13.151-14.056z"/></svg>